<svg width="694" height="210" viewBox="0 0 694 210" fill="none" xmlns="http://www.w3.org/2000/svg">
<path d="M34.0955 2.19373C23.4557 5.69202 15.2341 12.8944 11.3652 21.9488C10.5188 24.1095 9.06794 25.8586 8.3425 25.8586C7.49616 25.8586 5.31986 26.9904 3.38536 28.328C0.725435 30.2829 0 31.6205 0 35.1188C0 38.6171 0.725435 39.9547 3.62718 42.0125C10.5188 47.0541 10.277 45.305 10.277 105.085C10.277 164.864 10.5188 163.115 3.62718 168.157C0.725435 170.214 0 171.552 0 175.05C0 178.549 0.725435 179.886 3.38536 181.841C5.31986 183.179 7.49616 184.311 8.3425 184.311C9.06794 184.311 10.5188 186.06 11.3652 188.117C17.4104 202.419 32.4028 210.651 50.5386 209.827C65.7728 209.21 78.1052 202.008 84.0296 190.278C85.7223 186.986 87.6567 184.311 88.5031 184.311C89.3494 184.311 91.4048 183.179 93.3393 181.841C95.9992 179.886 96.7247 178.549 96.7247 175.05C96.7247 171.552 95.9992 170.214 93.0975 168.157C86.2059 163.115 86.4477 164.864 86.4477 105.085C86.4477 45.5108 86.3268 46.6426 92.8557 42.3212C99.0219 38.2055 97.571 28.9453 90.3167 26.7846C87.8986 26.0644 86.2059 24.2124 84.0296 19.8909C75.9289 3.83998 53.1986 -4.1855 34.0955 2.19373ZM32.4028 7.23538C25.7529 11.351 22.1258 15.4666 22.6094 18.5534C23.093 22.4632 30.1056 23.595 55.6167 23.8008C67.5864 23.9037 78.7097 24.4182 80.4024 24.8297C82.0951 25.2413 67.9491 25.6528 48.7251 25.7557C25.5111 25.8586 13.9042 25.5499 13.9042 24.8297C13.9042 20.0967 21.5212 11.4539 29.501 7.13249C36.6345 3.32553 38.569 3.42842 32.4028 7.23538ZM74.3571 30.3858L82.216 31.6205L77.3797 32.7523L72.5435 33.8841L77.3797 34.0899C82.216 34.2957 82.216 34.2957 75.6871 35.3246C68.5536 36.4564 69.1581 38.1026 76.7752 38.2055C80.6442 38.3084 80.7651 38.4113 78.5888 39.5431C75.3243 41.2923 20.6749 41.2923 16.3223 39.5431C13.4205 38.4113 13.4205 38.3084 17.7732 38.3084C24.1812 38.2055 24.5439 36.4564 18.4986 35.3246L13.2996 34.2957L17.5313 34.0899L21.7631 33.8841L17.5313 32.7523L13.2996 31.7234L19.9495 30.4887C28.7756 28.7396 64.3219 28.7396 74.3571 30.3858ZM73.148 45.4079C72.1808 45.9223 61.1784 46.4368 48.3623 46.4368C35.5463 46.4368 24.5439 45.9223 23.5766 45.4079C22.3676 44.7905 30.7101 44.379 48.3623 44.379C66.0146 44.379 74.3571 44.7905 73.148 45.4079ZM26.7202 54.0507C33.4909 58.475 33.8536 58.5779 34.4582 56.4172C34.9418 55.0796 36.1508 54.1536 37.4808 54.1536C39.4153 54.1536 40.0198 54.9767 40.2617 58.475C40.6244 62.6935 40.8662 62.8993 59.3648 74.6289L77.9843 86.5642V79.5676V72.4682L60.2111 61.2531L42.317 50.038L53.8031 49.7293C65.0473 49.4206 65.1683 49.4206 71.3345 53.0218L77.3797 56.7259L77.7425 53.1247C77.9843 50.3466 78.7097 49.5235 80.5233 49.5235C82.8205 49.5235 82.8205 50.7582 82.8205 105.085V160.646H80.1606C78.5888 160.646 69.7627 155.81 59.4857 149.328C49.6923 143.051 41.3498 138.01 40.9871 138.01C40.6244 138.01 40.5035 141.096 40.7453 144.903L41.108 151.9L47.6369 156.016L54.1658 160.131L42.438 160.44L30.831 160.749L25.0275 156.942L19.3449 153.237L18.9822 156.942C18.6195 159.822 18.015 160.646 16.2014 160.646C13.9042 160.646 13.9042 159.411 13.9042 105.085V49.5235H16.685C18.2568 49.5235 22.7303 51.5813 26.7202 54.0507ZM73.148 164.761C74.3571 165.379 66.0146 165.79 48.3623 165.79C30.7101 165.79 22.3676 165.379 23.5766 164.761C24.5439 164.247 35.5463 163.732 48.3623 163.732C61.1784 163.732 72.1808 164.247 73.148 164.761ZM79.7979 170.626C81.9742 171.758 81.8533 171.861 78.347 171.964C72.5435 171.964 72.4226 173.816 78.2261 174.845L83.425 175.873L79.1933 176.079L74.9616 176.285L79.1933 177.314L83.425 178.446L76.1707 179.783C66.8609 181.532 32.7655 181.532 22.3676 179.783L14.5087 178.549L19.3449 177.417L24.1812 176.285L19.3449 176.079C14.5087 175.873 14.5087 175.873 21.0376 174.845C28.1711 173.713 27.5665 171.964 20.0704 171.964C14.7505 171.964 16.2014 170.729 22.7303 169.803C31.1937 168.568 77.017 169.186 79.7979 170.626ZM82.8205 185.339C82.8205 190.072 75.2034 198.715 67.2237 203.037C60.0902 206.844 58.1557 206.741 64.3219 202.934C70.9717 198.818 74.5989 194.702 74.1153 191.616C73.6317 187.706 66.6191 186.574 41.108 186.368C29.1383 186.265 18.015 185.751 16.3223 185.339C14.6296 184.928 28.7756 184.516 48.1205 184.413C71.2135 184.311 82.8205 184.619 82.8205 185.339Z" fill="#1F2D58"/>
<path d="M18.7405 71.9532C18.7405 77.7151 19.1032 79.0527 21.1586 80.1845C23.4558 81.4192 23.5767 81.2134 23.5767 74.4226C23.5767 67.9405 22.3677 64.9567 19.7077 64.9567C19.2241 64.9567 18.7405 68.0434 18.7405 71.9532Z" fill="#1F2D58"/>
<path d="M29.6216 78.0243C29.6216 83.889 30.1052 85.5353 32.0397 87.0787C34.4578 88.9307 34.4578 88.8278 34.4578 81.7283C34.4578 75.8636 33.9742 74.2173 32.0397 72.6739C29.6216 70.8219 29.6216 70.9248 29.6216 78.0243Z" fill="#1F2D58"/>
<path d="M40.5044 85.329V92.4285L55.9803 102.203C64.4438 107.553 72.7863 112.698 74.7208 113.727L77.9852 115.579V108.582L77.8643 101.483L65.6528 93.7661C58.8821 89.5475 50.5396 84.3001 46.9124 82.1394L40.5044 78.1267V85.329Z" fill="#1F2D58"/>
<path d="M18.7405 101.792C18.7405 107.554 19.1032 108.891 21.1586 110.023C23.4558 111.258 23.5767 111.052 23.5767 104.261C23.5767 97.7791 22.3677 94.7953 19.7077 94.7953C19.2241 94.7953 18.7405 97.882 18.7405 101.792Z" fill="#1F2D58"/>
<path d="M29.6216 107.965C29.6216 113.727 30.1052 115.373 32.0397 116.917C34.4578 118.769 34.4578 118.666 34.4578 111.155C34.4578 104.673 34.0951 103.335 32.0397 102.203C29.7425 100.969 29.6216 101.174 29.6216 107.965Z" fill="#1F2D58"/>
<path d="M40.5044 115.065V122.164L58.2776 133.379C67.95 139.656 76.4134 144.8 77.018 145.006C77.5016 145.212 77.9852 142.228 77.9852 138.318V131.322L60.8166 120.415C51.265 114.448 42.8016 109.2 42.0762 108.789C40.8671 108.274 40.5044 109.715 40.5044 115.065Z" fill="#1F2D58"/>
<path d="M18.7405 130.395C18.7405 137.083 19.9495 140.067 22.6095 140.067C23.0931 140.067 23.5767 137.083 23.5767 133.585C23.5767 128.337 23.0931 126.588 21.1586 125.148C18.7405 123.296 18.7405 123.399 18.7405 130.395Z" fill="#1F2D58"/>
<path d="M29.6216 137.804C29.6216 143.565 29.9843 144.903 32.0397 146.035C34.3369 147.27 34.4578 147.064 34.4578 140.273C34.4578 134.511 34.0951 133.174 32.0397 132.042C29.7425 130.807 29.6216 131.013 29.6216 137.804Z" fill="#1F2D58"/>
<path d="M630.766 2.29636C622.424 5.0744 613.719 12.3797 609.97 19.8907C608.278 23.1832 606.343 25.8584 605.497 25.8584C604.651 25.8584 602.595 26.9902 600.661 28.3277C598.001 30.2827 597.275 31.6202 597.275 35.1185C597.275 38.6168 598.001 39.9544 600.903 42.0122C607.794 47.0539 607.552 45.3047 607.552 105.084C607.552 164.864 607.794 163.115 600.903 168.156C594.615 172.684 596.671 181.944 604.288 183.693C606.101 184.104 607.915 186.162 609.97 190.175C623.754 217.544 670.786 216.309 682.635 188.117C683.481 186.059 684.932 184.31 685.658 184.31C686.504 184.31 688.68 183.178 690.615 181.841C693.275 179.886 694 178.548 694 175.05C694 171.552 693.275 170.214 690.373 168.156C683.481 163.115 683.723 164.864 683.723 105.084C683.723 45.3047 683.481 47.0539 690.373 42.0122C693.275 39.9544 694 38.6168 694 35.1185C694 31.6202 693.275 30.2827 690.615 28.3277C688.68 26.9902 686.504 25.8584 685.658 25.8584C684.932 25.8584 683.481 24.1092 682.635 21.9485C680.338 16.5982 674.776 9.91028 669.819 6.82355C659.542 0.135635 643.34 -1.71638 630.766 2.29636ZM664.499 7.13222C672.479 11.4536 680.096 20.0965 680.096 24.8295C680.096 25.5497 668.489 25.8584 645.396 25.8584C626.414 25.8584 611.18 25.5497 611.663 25.0352C612.147 24.6237 624.358 24.0063 638.746 23.6976C653.617 23.389 666.434 22.5658 668.368 21.9485C674.534 19.7878 671.753 13.5115 661.597 7.23511C655.431 3.42815 657.366 3.32526 664.499 7.13222ZM673.446 30.3856L680.7 31.7231L676.469 32.8549L672.237 33.8838L676.469 34.0896L680.7 34.2954L675.501 35.3243C669.456 36.4561 669.819 38.2053 676.227 38.3082C680.579 38.3082 680.579 38.411 677.678 39.5428C675.622 40.366 665.466 40.7775 646.847 40.7775C628.227 40.7775 618.071 40.366 616.016 39.5428C613.114 38.411 613.114 38.3082 617.467 38.3082C623.512 38.2053 624.358 36.3532 618.797 35.633C611.784 34.6041 611.3 34.2954 616.62 34.0896L621.457 33.8838L616.62 32.752L611.784 31.6202L619.038 30.3856C629.074 28.7393 664.378 28.7393 673.446 30.3856ZM670.423 45.4076C669.456 45.9221 658.454 46.4365 645.638 46.4365C632.822 46.4365 621.819 45.9221 620.852 45.4076C619.643 44.7903 627.985 44.3787 645.638 44.3787C663.29 44.3787 671.632 44.7903 670.423 45.4076ZM616.258 53.1244L616.62 56.7256L622.666 53.0215C628.832 49.4204 628.832 49.4204 640.318 49.729L651.925 50.0377L634.031 61.2528L616.016 72.4679V79.4645V86.564L634.635 74.6286C653.134 62.8991 653.376 62.6933 653.738 58.4748C653.98 54.9765 654.585 54.1533 656.519 54.1533C657.849 54.1533 659.058 55.0794 659.542 56.4169C660.146 58.5777 660.509 58.4748 667.28 54.0504C671.27 51.5811 675.743 49.5233 677.315 49.5233H680.096V105.084C680.096 159.411 680.096 160.645 677.799 160.645C675.985 160.645 675.381 159.822 675.018 156.941L674.655 153.237L668.973 156.941L663.169 160.748L651.562 160.44L639.834 160.131L646.363 156.015L652.892 151.9L653.255 144.903C653.497 141.096 653.376 138.009 653.013 138.009C652.65 138.009 644.308 143.051 634.514 149.327C624.237 155.809 615.411 160.645 613.96 160.645H611.18V105.084C611.18 50.7579 611.18 49.5233 613.477 49.5233C615.29 49.5233 616.016 50.3464 616.258 53.1244ZM670.423 164.761C671.632 165.378 663.29 165.79 645.638 165.79C627.985 165.79 619.643 165.378 620.852 164.761C621.819 164.247 632.822 163.732 645.638 163.732C658.454 163.732 669.456 164.247 670.423 164.761ZM675.864 170.626C678.04 171.758 677.92 171.86 674.051 171.963C666.434 172.066 665.829 173.713 672.962 174.844C679.491 175.873 679.491 175.873 674.655 176.079L669.819 176.285L674.655 177.417L679.491 178.548L671.632 179.783C661.597 181.429 628.953 181.635 618.555 179.989C610.575 178.857 610.575 178.857 614.202 177.519L617.829 176.182L614.202 175.976C611.059 175.873 611.18 175.77 615.774 174.844C621.819 173.713 621.457 171.963 615.169 171.963C609.608 171.963 610.938 170.832 617.588 169.803C625.809 168.568 673.083 169.288 675.864 170.626ZM679.612 185.031C679.129 185.545 666.917 186.162 652.529 186.471C637.658 186.78 624.842 187.603 623.028 188.22C616.741 190.381 619.522 196.657 629.678 202.934C635.844 206.74 633.91 206.843 626.776 203.036C618.797 198.715 611.18 190.072 611.18 185.339C611.18 184.619 622.786 184.31 645.88 184.31C664.862 184.31 680.096 184.619 679.612 185.031Z" fill="#1F2D58"/>
<path d="M671.874 66.1914C671.027 66.9116 670.423 70.307 670.423 74.4226C670.423 81.2134 670.544 81.4192 672.841 80.1845C674.896 79.0527 675.259 77.7151 675.259 71.9532C675.259 64.9567 674.655 63.8249 671.874 66.1914Z" fill="#1F2D58"/>
<path d="M661.718 72.8796C660.026 74.423 659.542 76.6866 659.542 82.0369V89.0335L661.96 86.9757C664.136 85.2265 664.499 83.7861 664.136 77.9213C663.774 71.1305 663.653 70.9247 661.718 72.8796Z" fill="#1F2D58"/>
<path d="M634.513 89.9588L616.136 101.483L616.015 108.376C616.015 112.286 616.256 115.373 616.619 115.373C616.982 115.373 625.445 110.228 635.36 103.849L653.495 92.3253V85.3287C653.495 81.5218 653.375 78.3322 653.254 78.3322C653.012 78.3322 644.669 83.5796 634.513 89.9588Z" fill="#1F2D58"/>
<path d="M672.479 95.6188C670.786 97.1621 670.423 99.0142 670.665 104.365C671.028 110.641 671.149 111.052 673.204 109.715C675.018 108.583 675.26 107.143 675.018 100.969C674.655 93.7667 674.655 93.561 672.479 95.6188Z" fill="#1F2D58"/>
<path d="M661.718 102.409C660.026 103.541 659.542 105.29 659.542 111.361V118.872L661.96 116.814C664.136 115.065 664.499 113.624 664.136 107.862C663.774 101.689 663.653 101.277 661.718 102.409Z" fill="#1F2D58"/>
<path d="M634.392 119.695L616.015 131.219V138.318C616.015 143.668 616.377 145.109 617.586 144.594C618.312 144.183 626.775 138.935 636.327 133.071L653.495 122.267V115.271C653.495 111.361 653.375 108.171 653.133 108.171C653.012 108.171 644.548 113.316 634.392 119.695Z" fill="#1F2D58"/>
<path d="M672.599 125.354C671.027 126.794 670.423 129.161 670.423 133.688C670.423 137.186 670.906 140.067 671.511 140.067C674.171 140.067 675.38 136.774 675.017 130.292C674.655 123.604 674.534 123.399 672.599 125.354Z" fill="#1F2D58"/>
<path d="M661.597 132.35C659.783 133.482 659.541 134.923 659.783 140.376C660.146 146.652 660.267 147.064 662.322 145.726C664.136 144.595 664.377 143.154 664.136 137.701C663.773 131.424 663.652 131.013 661.597 132.35Z" fill="#1F2D58"/>
<path d="M345.549 7.54403C337.811 14.7464 335.877 21.8459 340.713 25.6528C344.703 28.8424 352.32 28.7395 355.826 25.5499C359.816 21.9487 359.211 17.8331 353.529 11.1452C350.869 7.8527 348.572 5.28043 348.33 5.28043C348.209 5.28043 346.879 6.30934 345.549 7.54403ZM351.232 14.7464C354.254 19.0678 354.254 22.3603 351.353 23.8008C347.604 25.447 342.768 23.3892 342.768 20.0967C342.768 17.7302 346.758 11.4539 348.33 11.4539C348.572 11.4539 349.902 12.9972 351.232 14.7464Z" fill="#1F2D58"/>
<path d="M322.456 26.0641C317.378 27.1959 313.388 32.3404 314.355 36.6619C316.289 46.0249 333.095 47.0538 333.095 37.7937C333.095 35.8387 332.249 33.7809 331.403 33.0607C328.985 31.4144 324.632 32.1347 322.939 34.3983C321.851 35.8387 322.093 36.559 323.907 37.6908C325.116 38.5139 326.808 38.9255 327.534 38.5139C328.38 38.1023 328.259 38.411 327.413 39.2341C325.236 41.2919 319.917 39.6457 319.07 36.559C318.466 34.5011 318.949 33.2665 321.367 31.3115C323.907 29.1508 325.116 28.7393 328.743 29.3566C337.206 30.6942 340.592 38.5139 335.03 44.07L332.128 46.9509L217.026 47.2596C108.573 47.4654 102.044 47.5683 102.407 49.3174C102.77 50.9637 109.54 51.0666 216.421 51.0666C340.954 51.0666 335.634 51.3752 340.35 44.8931C347.725 34.7069 336.602 22.8745 322.456 26.0641Z" fill="#1F2D58"/>
<path d="M365.619 25.8585C360.178 27.1961 357.398 28.9452 355.463 32.032C351.111 39.1314 355.221 47.9801 363.927 50.1408C367.554 51.0668 397.417 51.4783 480.963 51.4783C591.955 51.5812 593.043 51.5812 593.043 49.5234C593.043 47.5685 591.834 47.4656 478.908 47.2598L364.773 46.9511L361.629 44.4818C355.221 39.3372 358.728 30.9002 367.796 29.3568C370.939 28.8424 372.269 29.2539 374.687 31.3117C376.38 32.8551 377.831 34.7071 377.831 35.5303C377.831 39.1314 370.697 41.9095 368.642 39.0285C368.158 38.4112 368.279 38.2054 369.126 38.617C369.851 38.9257 371.181 38.5141 372.269 37.5881C374.808 35.4274 372.753 32.032 368.884 32.032C362.838 32.032 360.783 39.1314 365.861 42.6297C371.181 46.2309 380.491 43.2471 381.821 37.3823C383.513 29.8713 374.687 23.5949 365.619 25.8585Z" fill="#1F2D58"/>
<path d="M141.46 37.1763C141.097 37.6907 141.097 38.6167 141.46 39.2341C141.944 39.9543 170.236 40.263 222.588 40.263C302.023 40.263 302.869 40.263 302.869 38.2052C302.869 36.1474 302.023 36.1474 222.588 36.1474C170.236 36.1474 141.944 36.456 141.46 37.1763Z" fill="#1F2D58"/>
<path d="M393.549 38.2052C393.549 40.263 394.395 40.263 473.951 40.263C553.507 40.263 554.354 40.263 554.354 38.2052C554.354 36.1474 553.507 36.1474 473.951 36.1474C394.395 36.1474 393.549 36.1474 393.549 38.2052Z" fill="#1F2D58"/>
<path d="M491.482 64.5451C491.482 65.9855 490.636 66.0884 485.799 65.3682C480.359 64.5451 472.621 64.3393 462.465 64.8537C460.167 64.9566 453.88 64.8537 448.56 64.5451C441.548 64.2364 438.162 64.5451 436.228 65.574C432.359 67.6318 432.722 70.1012 436.832 70.1012C442.515 70.1012 443.12 71.5416 443.12 85.329C443.12 97.4701 442.999 98.1904 440.218 100.248L437.316 102.409L440.218 104.364C442.999 106.216 443.12 106.73 443.12 121.032C443.12 135.025 442.999 135.951 440.581 137.083C439.13 137.7 436.953 138.009 435.744 137.7C433.084 137.083 432.48 140.17 435.019 141.816C437.437 143.565 480.963 143.359 486.767 141.61C492.328 139.861 493.9 140.273 493.9 143.257C493.9 144.594 494.746 145.211 496.681 145.211C500.913 145.211 503.693 142.022 503.573 137.392C503.573 135.128 503.814 131.836 504.298 129.984C504.661 128.132 504.54 126.074 503.814 125.354C503.089 124.633 502.122 121.649 501.638 118.666C500.792 113.315 498.253 110.537 495.472 112.081C494.867 112.492 494.021 115.579 493.658 119.077C492.691 127.514 488.943 133.585 483.26 135.643C478.182 137.392 471.049 136.98 466.696 134.511C463.794 132.865 463.674 132.556 463.674 119.489V106.113L466.938 105.496C468.873 104.981 471.291 105.29 473.225 106.216C475.885 107.451 476.369 108.479 476.369 112.081C476.369 116.814 477.94 117.945 481.568 115.888C484.832 113.83 486.283 104.775 484.711 95.6181C483.865 90.2678 481.93 88.21 478.545 88.8273C476.852 89.0331 476.49 89.9591 476.731 92.3256C477.336 97.6759 474.676 98.9106 462.948 98.9106C457.266 98.9106 452.913 98.499 453.276 98.0875C453.638 97.573 456.057 96.3383 458.837 95.3094L463.674 93.4574V84.9174C463.674 76.6862 463.794 76.3775 467.422 73.8052C473.951 69.0723 484.59 70.9243 488.58 77.5093C489.668 79.2584 490.636 82.9625 490.757 85.7406C490.877 90.062 491.24 90.6793 493.416 90.6793C498.615 90.6793 500.308 86.4608 500.066 73.7023C499.945 64.2364 499.341 62.8988 495.109 62.8988C492.57 62.8988 491.482 63.4133 491.482 64.5451Z" fill="#D96704"/>
<path d="M105.913 65.0597C104.463 65.5741 103.374 66.8088 103.374 68.0435C103.374 69.5869 104.221 70.1013 106.76 70.1013C112.442 70.1013 113.047 71.5418 113.047 85.0205C113.047 96.9558 112.926 97.6761 110.024 99.9397L107.123 102.306L110.024 104.261C112.926 106.216 113.047 106.628 113.047 120.415C113.047 133.173 112.805 134.82 110.629 136.466C109.299 137.495 107.243 138.009 105.793 137.701C102.407 136.98 101.44 138.73 103.979 141.096C105.793 142.845 107.969 143.051 120.785 143.257C128.765 143.36 139.283 143.463 143.878 143.463C157.903 143.668 169.994 137.598 174.951 127.823C176.281 125.251 178.215 122.267 179.303 121.341C180.875 119.798 180.875 119.283 179.424 117.843C178.457 116.917 176.402 113.727 174.709 110.846C173.016 107.965 169.994 104.673 167.817 103.438L163.948 101.174L166.487 99.3223C167.817 98.1905 170.114 95.3096 171.444 92.7373C172.774 90.1651 174.588 87.2841 175.555 86.3581C177.248 84.8147 177.127 84.3003 174.83 81.8309C173.379 80.2875 172.291 78.5384 172.291 77.8182C172.291 77.2008 170.356 74.7314 168.059 72.3649C161.772 66.1915 152.825 63.5163 140.855 64.3394C130.336 65.0597 131.062 65.0597 118.367 64.6481C112.926 64.4423 107.364 64.6481 105.913 65.0597ZM147.868 72.1591L151.737 74.217V84.5061C151.737 98.6021 151.374 98.9108 133.964 98.8079H120.906L127.314 96.0298L133.601 93.3547V83.8887C133.601 76.2748 133.964 74.217 135.777 72.9823C140.13 69.6898 142.79 69.484 147.868 72.1591ZM148.472 106.216C152.946 107.965 154.155 111.361 154.155 121.547C154.155 129.881 153.913 130.91 151.011 133.791C148.472 136.363 147.021 136.98 143.152 136.98C140.009 136.98 137.591 136.26 136.019 134.923C133.843 133.071 133.601 131.527 133.601 118.974V105.084H139.646C142.911 105.084 146.901 105.599 148.472 106.216Z" fill="#1F2D58"/>
<path d="M202.759 65.5743C201.308 66.3974 200.099 68.0436 200.099 69.1754C200.099 70.7188 200.945 71.1304 203.726 71.1304C205.781 71.1304 207.716 71.7477 208.079 72.5708C208.804 74.1142 203.242 91.7085 200.582 95.9271C199.736 97.4704 197.802 99.4254 196.351 100.351C193.933 101.792 193.933 101.998 195.746 104.158C196.834 105.496 197.681 107.657 197.681 108.891C197.681 110.846 198.285 111.258 201.308 111.258C204.21 111.258 204.935 110.743 205.902 107.862C206.507 106.113 208.804 98.7051 210.98 91.5028C213.277 84.3004 215.212 78.5385 215.333 78.6414C215.575 78.7443 218.114 86.4611 221.136 95.8242C224.28 105.187 227.061 113.624 227.423 114.55C228.028 116.299 226.577 116.402 207.232 116.402H186.315L189.58 119.283L192.844 122.267L190.426 128.955C187.645 136.569 185.711 138.421 181.358 137.701C178.578 137.289 178.215 137.598 178.578 139.964L178.94 142.64H192.844H206.749L207.111 139.964C207.474 137.598 207.111 137.392 203.968 137.804C198.406 138.421 196.955 136.055 198.89 129.264L200.461 123.605H215.333H230.204L232.018 129.161C233.106 132.248 233.952 135.231 233.952 135.746C233.952 137.083 229.6 138.318 227.907 137.495C226.094 136.569 226.456 140.685 228.27 141.919C229.116 142.537 236.854 142.948 246.406 142.948C259.464 142.948 263.212 142.64 263.816 141.611C264.3 140.376 264.783 140.376 266.96 141.611C270.224 143.257 301.418 143.566 303.836 141.919C306.254 140.17 305.529 138.009 302.385 138.009C296.582 138.009 295.614 135.849 295.614 122.576C295.614 109.303 295.735 109.2 302.748 109.817C311.211 110.64 313.871 114.653 314.959 127.823C315.443 134.511 316.41 138.627 317.74 140.479C319.796 143.051 320.279 143.154 331.644 143.051C343.614 142.948 346.395 142.228 346.395 139.038C346.395 137.701 345.669 137.392 343.493 137.701C339.141 138.421 335.513 133.791 335.513 127.515C335.513 118.769 333.337 113.624 327.896 109.714C325.236 107.76 323.544 106.113 324.269 106.113C327.171 106.113 332.974 100.66 335.03 96.03C336.239 93.3548 337.931 90.371 338.899 89.3421C340.47 87.7987 340.47 87.3871 338.778 85.7409C337.811 84.8149 336.239 81.9339 335.513 79.3616C333.7 73.4969 325.841 66.6032 319.191 65.0598C312.178 63.5164 269.741 64.1338 267.322 65.8829C264.179 68.1465 265.025 70.1015 268.894 70.1015C275.06 70.1015 276.149 72.7766 275.665 86.3582C275.302 97.2647 275.06 98.4993 272.642 100.146L269.861 102.101L272.763 104.673C275.544 107.142 275.665 107.965 275.665 121.238C275.665 133.585 275.423 135.231 273.368 136.466C271.07 137.907 259.826 138.009 257.287 136.672C256.441 136.26 253.297 129.161 250.033 120.93L244.229 105.907L247.01 104.055L249.67 102.101L246.164 100.351C241.932 98.1907 241.328 97.2647 236.975 83.7859C233.227 72.2622 233.711 70.1015 239.635 70.1015C243.625 70.1015 242.899 67.1176 238.547 65.0598C235.887 63.7222 234.557 63.7222 231.534 64.6482C228.753 65.5743 226.94 65.5743 224.764 64.7511C222.708 63.928 220.653 63.928 217.751 64.6482C215.454 65.2656 212.915 65.3685 212.068 64.854C209.529 63.5164 205.781 63.7222 202.759 65.5743ZM311.816 72.2622C314.838 74.32 314.959 74.6287 314.959 86.6669C314.959 103.027 314.959 103.027 297.186 103.027H284.128L289.932 100.248L295.614 97.5733V86.8727C295.614 80.905 296.219 75.246 296.944 74.1142C299.483 69.8957 306.98 68.9697 311.816 72.2622Z" fill="#D96704"/>
<path d="M352.803 65.4716C348.934 67.8381 349.297 70.1017 353.408 70.1017C360.058 70.1017 361.146 72.674 360.662 86.0498C360.299 97.3678 360.178 98.1909 357.277 100.146C354.617 101.998 354.496 102.307 356.189 103.335C360.058 105.805 360.904 109.097 360.904 121.444C360.904 132.762 360.662 134.1 358.365 136.055C356.672 137.495 354.859 138.01 352.924 137.701C349.539 137.187 349.055 139.039 351.836 141.508C353.65 143.051 357.519 143.257 391.735 143.463C406.002 143.566 417.488 137.598 422.566 127.515C424.017 124.531 426.072 121.238 427.16 120.21C428.128 119.284 428.369 118.46 427.765 118.46C427.039 118.46 424.863 115.477 422.808 111.875C420.39 107.554 417.851 104.673 415.432 103.438C411.805 101.586 411.805 101.586 414.103 99.4256C415.312 98.2938 417.488 95.0013 418.939 92.2232C420.39 89.3423 422.445 86.2556 423.412 85.2267C424.742 84.0949 424.863 83.4775 423.896 83.4775C423.17 83.4775 421.357 81.3168 420.027 78.5387C416.883 72.2624 414.828 70.5133 407.453 67.2208C401.528 64.5456 396.329 64.134 378.435 64.6485C376.501 64.7514 372.753 64.7514 370.335 64.8543C367.796 64.8543 365.015 64.8543 364.289 64.9572C363.443 64.9572 361.146 64.7514 359.09 64.4427C356.793 64.0311 354.496 64.4427 352.803 65.4716ZM394.758 71.6451C399.231 73.6 399.957 76.0694 399.473 87.1816C398.868 98.7054 398.506 98.9111 380.974 98.8082H367.554L373.962 96.0302L380.249 93.355V85.0209C380.249 76.1723 381.821 72.7769 386.778 71.1306C390.405 69.8959 390.768 69.8959 394.758 71.6451ZM398.264 107.554C400.561 109.303 400.803 110.744 400.803 120.724C400.803 131.219 400.682 132.042 397.78 134.408C394.153 137.598 387.745 137.804 383.755 135.026C380.974 133.174 380.853 132.351 380.491 118.975L380.007 104.879L387.987 105.29C393.428 105.599 396.571 106.319 398.264 107.554Z" fill="#D96704"/>
<path d="M514.817 65.4713C510.948 67.8378 511.311 70.1014 515.422 70.1014C521.104 70.1014 521.709 71.5419 521.709 85.3292C521.709 97.4704 521.588 98.1906 518.807 100.248L515.905 102.409L518.807 104.364C521.588 106.216 521.709 106.731 521.709 121.032C521.709 135.026 521.588 135.952 519.17 137.083C517.719 137.701 515.543 138.009 514.334 137.701C511.674 137.083 511.069 140.17 513.608 141.919C514.455 142.434 522.555 142.948 532.349 142.948C548.187 142.948 549.638 142.845 550.847 140.993C552.298 138.627 551.331 136.878 548.913 137.598C548.066 137.906 546.132 137.598 544.681 136.98C542.384 135.952 542.263 135.128 542.505 122.782L542.867 109.714L547.583 110.023C557.981 110.743 560.278 113.83 561.487 128.132C562.696 142.845 563.18 143.154 578.414 143.051C590.263 142.948 593.043 142.228 593.043 139.038C593.043 137.701 592.318 137.392 590.142 137.701C584.338 138.627 580.953 132.865 580.953 122.164C580.953 116.299 578.172 111.361 573.094 108.583L569.95 106.833L573.698 104.981C577.567 102.924 582.162 97.3675 582.162 94.6923C582.162 93.7663 583.25 91.8114 584.701 90.268C586.998 87.7986 587.119 87.2842 585.426 85.7408C584.459 84.8148 582.766 81.5223 581.678 78.6413C577.567 68.0436 566.807 63.2077 549.88 64.3395C544.681 64.6482 539.361 64.854 538.031 64.854C535.613 64.6482 529.084 64.7511 526.303 64.9569C525.457 64.9569 523.16 64.7511 521.104 64.4424C518.807 64.0308 516.51 64.4424 514.817 65.4713ZM559.552 73.291C561.245 75.0402 561.608 77.5095 561.608 87.1813C561.608 102.924 561.487 103.026 543.835 103.026L530.777 102.924L536.459 100.146L542.263 97.3675V86.7697C542.263 80.9049 542.867 75.2459 543.593 74.1141C546.374 69.6898 555.563 69.2783 559.552 73.291Z" fill="#1F2D58"/>
<path d="M296.583 155.089C296.099 155.706 293.197 156.015 289.328 155.706C283.888 155.397 282.558 155.603 280.623 157.455C275.666 162.085 279.535 171.14 287.394 173.815C291.746 175.152 294.165 179.474 291.988 181.737C288.24 185.544 281.107 181.84 281.107 176.181C281.107 171.345 278.447 175.564 278.084 180.914L277.842 185.956L285.218 186.059C293.439 186.265 297.429 184.721 299.364 180.503C301.54 175.564 296.462 167.744 289.207 165.069C285.58 163.629 284.613 159.204 287.877 158.175C290.779 157.249 294.406 159.41 294.406 162.188C294.406 164.966 296.462 165.686 297.55 163.32C298.517 161.262 297.55 153.751 296.583 155.089Z" fill="#D96704"/>
<path d="M364.531 155.603C359.694 157.25 357.397 159.616 355.463 164.966C353.891 169.494 354.012 170.523 355.826 175.873C360.904 190.072 377.589 189.66 382.062 175.255C383.513 170.523 383.513 169.082 381.941 164.864C379.281 157.044 371.785 153.134 364.531 155.603ZM371.422 158.381C372.511 158.896 372.873 162.703 372.631 170.934L372.39 182.767H368.762H365.135L364.893 171.449C364.652 158.587 366.103 155.5 371.422 158.381Z" fill="#D96704"/>
<path d="M311.333 156.53C311.333 157.045 312.058 157.559 313.025 157.559C314.476 157.559 314.839 159.926 314.839 170.42C314.839 181.018 314.476 183.282 313.146 183.282C310.97 183.282 310.728 184.928 312.904 185.545C314.113 185.957 321.61 185.854 326.204 185.442C327.897 185.237 327.05 183.282 325.237 183.282C323.786 183.282 323.423 181.944 323.423 177.623V171.964H328.259H333.096V177.623C333.096 182.15 332.733 183.282 331.161 183.282C330.073 183.282 329.468 183.899 329.71 184.516C330.073 185.34 332.733 185.854 336.602 185.957C343.131 186.06 345.791 184.722 342.284 183.076C339.987 181.944 339.504 173.096 341.801 171.141C342.889 170.215 342.889 169.597 341.801 168.671C340.954 167.951 340.35 165.379 340.35 162.909C340.35 159.308 340.834 158.279 342.768 157.868C344.098 157.559 344.823 156.942 344.461 156.427C343.614 155.193 329.468 155.295 329.468 156.53C329.468 157.045 330.315 157.559 331.282 157.559C332.733 157.559 333.096 158.897 333.096 163.218V168.877H326.808C321.972 168.877 320.884 168.568 321.972 167.642C322.819 166.922 323.423 164.453 323.423 161.983C323.423 158.691 323.907 157.559 325.358 157.559C326.325 157.559 326.808 157.045 326.446 156.53C326.083 155.913 322.456 155.501 318.466 155.501C314.476 155.501 311.333 155.913 311.333 156.53Z" fill="#D96704"/>
<path d="M396.571 156.529C396.209 157.044 396.692 157.558 397.659 157.558C399.957 157.558 401.408 161.777 400.199 165.584C399.352 168.773 399.352 169.597 400.319 176.387C401.045 181.223 399.352 184.927 397.055 183.693C396.45 183.384 395.967 183.693 395.967 184.207C395.967 184.824 396.33 185.442 396.934 185.442C399.594 185.853 410.113 185.956 411.443 185.545C413.015 185.133 413.498 183.178 412.047 183.384C408.904 183.796 408.057 182.972 408.057 179.165C408.057 175.461 408.299 175.05 411.08 175.05C419.06 175.05 426.677 167.436 423.654 162.497C420.027 156.324 417.972 155.501 407.332 155.501C401.77 155.501 396.934 155.912 396.571 156.529ZM413.377 158.176C414.828 158.69 415.312 160.234 415.312 164.658C415.312 171.243 413.74 173.506 410.234 171.86C408.541 171.037 408.057 169.597 408.057 164.761C408.057 160.954 408.541 158.587 409.629 158.279C410.355 157.97 411.201 157.661 411.322 157.661C411.443 157.558 412.289 157.867 413.377 158.176Z" fill="#D96704"/>
<path d="M102.407 161.366C102.769 163.115 107.485 163.218 177.731 163.424L252.572 163.732L255.474 166.099C261.156 171.037 258.134 179.475 250.275 180.812C245.076 181.635 243.141 181.018 240.602 177.725C238.305 174.742 239.635 171.449 243.625 170.42C247.131 169.494 249.549 171.037 246.164 172.169C242.295 173.301 243.141 177.52 247.373 177.931C251.846 178.343 255.353 174.844 253.781 171.14C252.088 167.128 247.131 165.378 241.811 166.819C236.854 168.157 235.161 170.42 235.161 175.256C235.161 179.886 237.942 182.973 243.504 184.413C256.562 187.706 267.443 176.182 261.156 165.79C257.287 159.411 259.463 159.617 177.127 159.617C106.155 159.617 102.044 159.719 102.407 161.366Z" fill="#1F2D58"/>
<path d="M440.823 160.954C435.866 163.115 432.843 167.539 432.964 172.375C433.085 178.034 436.107 181.635 442.274 183.796C448.803 186.059 454.243 185.133 458.112 181.121C461.981 177.211 462.102 172.889 458.475 169.391C453.155 164.041 441.911 166.51 441.911 172.992C441.911 176.593 444.45 178.343 448.803 177.931C451.463 177.725 452.188 177.108 452.188 175.05C452.188 173.301 451.342 172.375 449.165 171.963C446.143 171.346 446.143 171.243 448.803 170.523C455.452 168.671 459.563 176.182 453.76 179.577C449.407 182.149 444.571 181.635 440.46 178.137C437.317 175.359 436.833 174.433 437.437 171.14C439.009 163.32 434.415 163.732 518.203 163.732C592.197 163.732 593.043 163.732 593.043 161.674C593.043 159.616 592.197 159.616 518.444 159.616C461.498 159.616 442.999 159.925 440.823 160.954Z" fill="#1F2D58"/>
</svg>
